<svg width="548" height="548" viewBox="0 0 548 548" fill="none" xmlns="http://www.w3.org/2000/svg">
<path d="M195.947 482.154C192.792 479.688 189.284 477.709 185.54 476.282C182.037 475.051 178.366 474.36 174.654 474.233C166.612 474.143 158.596 475.153 150.829 477.239C142.887 479.218 135.288 481.537 129.674 483.451C124.06 485.361 120.362 486.796 120.362 486.796C120.362 486.796 123.991 488.845 129.742 491.303C136.943 494.419 144.477 496.709 152.198 498.128C160.925 499.838 169.92 499.629 178.557 497.515C182.537 496.664 186.23 494.803 189.277 492.112C192.324 489.421 194.621 485.99 195.947 482.154Z" fill="#C4A386"/>
<path d="M171.707 447.062C174.662 454.153 179.373 460.377 185.4 465.154C188.256 467.37 191.581 468.912 195.122 469.661C198.772 470.405 202.562 470.049 206.008 468.634C206.245 461.4 204.289 454.263 200.393 448.158C196.674 442.486 192.049 437.455 186.701 433.276C182.055 429.546 177.185 426.103 172.118 422.966C168.079 420.439 165.272 419.007 165.272 419.007C165.272 419.007 165.272 419.895 165.272 421.465C165.272 423.036 165.682 425.15 166.161 427.882C167.219 434.478 169.081 440.919 171.707 447.062Z" fill="#C4A386"/>
<path d="M114.607 465.497C118.476 465.453 122.283 464.524 125.737 462.786C129.19 461.044 132.198 458.541 134.53 455.462C132.709 452.247 130.253 449.434 127.312 447.193C124.37 444.952 121.003 443.328 117.414 442.42C109.666 440.355 101.677 439.32 93.6566 439.349C85.5094 439.349 77.3622 439.349 71.2692 439.349H61.0677C61.0677 439.349 61.821 440.236 63.1902 441.602C64.5594 442.968 66.6819 444.813 69.2837 446.927C75.5448 452.072 82.4488 456.386 89.8226 459.76C97.5278 463.559 106.012 465.522 114.607 465.497Z" fill="#C4A386"/>
<path d="M130.083 434.298C132.206 437.21 135.016 439.557 138.264 441.128C141.512 442.702 145.098 443.451 148.705 443.312C151.554 436.453 151.725 428.781 149.185 421.809C146.753 415.4 143.334 409.413 139.052 404.06C135.15 398.736 131.179 394.159 128.303 390.953C126.865 389.244 125.633 387.947 124.811 387.06L123.511 385.694C123.511 385.694 123.511 386.516 122.826 387.947C122.31 389.996 121.898 392.07 121.594 394.159C120.586 400.699 120.586 407.352 121.594 413.887C122.666 421.294 125.585 428.311 130.083 434.298Z" fill="#C4A386"/>
<path d="M32.4506 377.434C26.8365 375.659 23.1395 374.635 23.1395 374.635C23.1395 374.635 23.4818 375.591 24.2351 377.161C24.988 378.731 26.1519 380.848 27.5898 383.442C29.0273 386.037 30.8074 389.039 32.8616 392.18C33.8885 393.75 34.9837 395.321 36.1476 396.957L37.0379 398.187L38.2018 399.688L40.5978 402.694C46.5122 410.125 54.3813 415.777 63.328 419.007C67.0331 420.369 71.0204 420.79 74.9292 420.23C78.8385 419.67 82.5456 418.149 85.7159 415.801C83.8878 408.505 79.4895 402.109 73.3237 397.779C71.8862 396.617 70.243 395.525 68.5998 394.364L63.3967 391.088L57.8509 387.878C56.1394 386.925 54.3592 386.037 52.579 385.215C46.0521 382.176 39.3276 379.576 32.4506 377.434Z" fill="#C4A386"/>
<path d="M87.6368 391.497C88.5668 394.948 90.4112 398.089 92.977 400.588C95.5427 403.087 98.7351 404.849 102.22 405.696C106.738 399.979 109.305 392.969 109.545 385.694C109.726 379.637 109.313 373.579 108.313 367.603C107.901 364.578 107.26 361.589 106.396 358.66C105.506 355.656 104.616 352.926 103.726 350.673C102.836 348.42 102.083 346.509 101.535 345.212L100.782 343.164L99.344 345.212C98.4541 346.577 97.3585 348.489 96.1263 350.878C92.9446 356.95 90.3981 363.332 88.5267 369.924C88.0474 371.767 87.5681 373.679 87.1575 375.59C86.8013 377.394 86.5498 379.218 86.4042 381.051C86.2333 382.868 86.2333 384.696 86.4042 386.512C86.6574 388.209 87.07 389.877 87.6368 391.497Z" fill="#C4A386"/>
<path d="M23.8237 349.443C25.163 350.994 26.6287 352.432 28.2056 353.743C29.6881 355.023 31.2675 356.187 32.9295 357.225C36.0343 359.485 39.6118 361.016 43.3942 361.702C47.1767 362.388 51.0654 362.211 54.7697 361.184C55.4179 357.541 55.1832 353.796 54.0851 350.262C53.5776 348.588 52.8648 346.983 51.9627 345.483C51.0699 343.925 50.0868 342.421 49.0186 340.978C44.1115 334.829 38.1833 329.564 31.4916 325.413C25.5994 321.266 19.4732 317.459 13.1434 314.012L4.51688 309.37C4.51688 309.37 4.51688 310.394 5.06447 312.101C5.61247 313.808 6.22836 316.197 7.25524 318.928C9.4542 326.117 12.5598 332.998 16.498 339.407C18.6868 342.929 21.1356 346.283 23.8237 349.443Z" fill="#C4A386"/>
<path d="M66.6831 346.576C68.2196 349.812 70.5805 352.59 73.5295 354.632C80.1088 350.956 85.0129 344.892 87.2221 337.702C87.7681 336.026 88.2028 334.315 88.523 332.582L88.934 329.988C88.934 329.169 88.934 328.281 89.3446 327.394C89.7527 323.905 89.8901 320.391 89.7556 316.881C89.5266 310.937 88.9549 305.011 88.0437 299.132C87.6331 296.811 87.2221 294.899 86.9485 293.602C86.6745 292.305 86.5375 291.554 86.5375 291.554L84.8261 293.261C83.3011 294.773 81.8611 296.369 80.5128 298.04C76.2654 303.228 72.5926 308.858 69.5585 314.833C66.2153 321.568 64.4147 328.959 64.2867 336.473C64.3034 338.246 64.5333 340.011 64.9713 341.729C65.3581 343.404 65.9323 345.03 66.6831 346.576Z" fill="#C4A386"/>
<path d="M9.99568 284.591C10.9543 286.403 12.0531 288.138 13.2821 289.779C14.5208 291.374 15.8703 292.879 17.3213 294.285C19.9419 297.037 23.1461 299.17 26.6999 300.528C30.2537 301.886 34.0668 302.435 37.8607 302.135C39.2192 298.712 39.7133 295.008 39.2986 291.35C39.0888 289.607 38.699 287.891 38.1347 286.229C37.6959 284.504 37.1233 282.815 36.4228 281.178C34.7739 277.723 32.7291 274.47 30.3298 271.484L26.6324 266.842C25.4002 265.272 24.031 263.77 22.7302 262.268C17.3213 256.397 11.4336 250.936 7.25732 246.908C3.08107 242.881 0 240.218 0 240.218C0 240.218 0 244.314 0 250.458C0.319394 253.986 0.821998 257.495 1.50618 260.971C1.91718 262.883 2.32777 264.862 2.80707 266.842C3.25038 268.878 3.8221 270.885 4.51855 272.849C6.07054 276.884 7.9006 280.808 9.99568 284.591Z" fill="#C4A386"/>
<path d="M57.579 297.698C64.5918 295.353 70.475 290.485 74.0791 284.045C74.9551 282.56 75.7105 281.008 76.3382 279.403C77.1218 277.831 77.8076 276.212 78.3924 274.556C79.47 271.372 80.294 268.107 80.8572 264.794C81.473 261.585 82.1576 258.445 82.4999 255.578C82.4999 254.076 82.4999 252.711 82.9109 251.414C83.3215 250.117 82.9109 248.888 82.9109 247.728C83.288 245.24 83.5166 242.733 83.5955 240.218C83.5955 240.218 80.5832 241.925 76.2699 244.997L72.7783 247.591C71.5461 248.615 70.3135 249.639 69.0813 250.8C66.4075 253.185 63.9133 255.764 61.6187 258.514C60.4548 259.947 59.2909 261.449 58.1953 263.019L56.6891 265.408L55.3882 267.934C53.7573 271.202 52.5603 274.667 51.8283 278.243C51.4467 279.968 51.2631 281.732 51.2803 283.499C51.3817 285.206 51.6569 286.899 52.1019 288.551C53.0862 292.028 54.976 295.184 57.579 297.698Z" fill="#C4A386"/>
<path d="M29.1006 199.259C27.2521 195.709 25.2667 192.432 23.3499 189.087L18.0781 180.554C14.997 175.571 12.7379 172.362 12.7379 172.362C12.7379 172.362 11.574 176.253 10.3414 182.261C9.93084 185.333 9.45154 189.087 9.17753 192.842C9.17753 194.753 9.17753 196.801 9.17753 198.849C9.17753 200.897 9.17753 203.013 9.17753 205.13C9.51124 209.366 10.1983 213.568 11.2317 217.691C12.3089 221.645 13.921 225.434 16.0243 228.955C17.9145 232.243 20.5416 235.051 23.7012 237.159C26.8604 239.267 30.4657 240.618 34.2355 241.106C35.2607 239.553 36.0888 237.879 36.7002 236.122C37.3472 234.472 37.8065 232.755 38.0694 231.002C38.5949 227.5 38.4322 223.93 37.5905 220.49C36.8066 216.799 35.6836 213.189 34.2355 209.704C32.7293 206.086 30.8808 202.399 29.1006 199.259Z" fill="#C4A386"/>
<path d="M73.3961 230.115C75.8188 227.747 77.9347 225.087 79.6949 222.196C81.6178 219.485 83.2908 216.606 84.6927 213.595C85.446 212.161 85.9936 210.728 86.6782 209.362L88.4584 205.266C89.554 202.604 90.3755 200.146 91.1284 198.03C92.7033 193.866 93.4562 191.204 93.4562 191.204C90.6033 191.94 87.7922 192.828 85.035 193.866C78.8716 196.175 73.0461 199.298 67.7137 203.15C66.156 204.213 64.6694 205.375 63.2634 206.631C61.8947 207.883 60.5921 209.204 59.3612 210.591C56.9042 213.336 54.8524 216.416 53.2677 219.738C51.8658 222.875 51.1428 226.271 51.1453 229.705C51.0987 231.415 51.3297 233.121 51.8299 234.757C52.393 236.509 53.1753 238.183 54.1576 239.74C61.5037 238.879 68.3128 235.472 73.3961 230.115Z" fill="#C4A386"/>
<path d="M49.3607 177.278C50.4297 175.889 51.3265 174.376 52.0312 172.772C52.7072 171.192 53.2122 169.544 53.5374 167.857C53.5374 166.151 54.0162 164.376 54.2219 162.6C54.4432 158.88 54.2362 155.147 53.6056 151.473C53.0842 147.541 52.3297 143.643 51.3462 139.8C49.3607 132.018 47.2386 124.713 45.2531 119.32C43.2676 113.927 42.0351 109.831 42.0351 109.831C42.0351 109.831 41.4875 110.719 40.6659 112.22C39.8443 113.722 38.7487 116.043 37.4482 119.047C34.3479 125.906 32.0508 133.099 30.6015 140.482C29.9218 144.569 29.5329 148.698 29.4376 152.839C29.4613 154.895 29.6212 156.947 29.9169 158.982C30.2379 160.94 30.6722 162.878 31.2178 164.785C32.2124 168.421 33.988 171.799 36.4209 174.684C38.9098 177.693 42.1095 180.039 45.7324 181.51C47.1294 180.271 48.3502 178.847 49.3607 177.278Z" fill="#C4A386"/>
<path d="M114.268 147.65C115.021 146.558 115.363 145.944 115.363 145.944H112.967C111.324 145.944 109.202 145.944 106.6 146.49C103.998 147.036 100.917 147.309 97.6313 148.06C95.9882 148.402 94.2763 148.879 92.5648 149.357C90.8533 149.835 89.2101 150.518 87.4987 151.201C83.9959 152.525 80.645 154.219 77.5026 156.252C74.5016 158.166 71.7629 160.461 69.3553 163.079C68.2479 164.393 67.3053 165.837 66.5483 167.379C65.8064 168.89 65.2106 170.467 64.7685 172.09C64.3011 173.733 64.0708 175.434 64.0835 177.141C64.2332 178.97 64.5775 180.778 65.1108 182.534C68.8413 183.258 72.6769 183.258 76.4074 182.534C79.8123 181.756 83.0868 180.492 86.1291 178.78C87.5669 177.892 89.0048 177.005 90.374 175.981L92.2908 174.411L94.2763 172.773C96.7509 170.697 99.0414 168.413 101.123 165.946C103.178 163.79 105.099 161.51 106.874 159.119L108.106 157.344L109.27 155.774C110.092 154.682 110.776 153.658 111.392 152.771C112.009 151.883 113.652 148.811 114.268 147.65Z" fill="#C4A386"/>
<path d="M71.6818 127.034C74.9174 125.458 77.7151 123.114 79.829 120.207C81.9478 117.439 83.5059 114.285 84.4158 110.923C88.1407 96.5828 87.1551 81.346 85.8537 66.7547C85.2374 61.0887 84.6215 57.2657 84.6215 57.2657C81.8513 59.4141 79.7549 61.9079 77.7065 64.775C75.6307 67.4863 73.7106 70.3122 71.9554 73.2399C69.911 76.6502 68.0817 80.184 66.4782 83.8212C64.851 87.6196 63.5456 91.5472 62.576 95.5632C61.7642 99.4675 61.4419 103.458 61.6174 107.441C61.7131 111.251 62.6676 114.99 64.4097 118.381C66.1519 121.773 68.6375 124.73 71.6818 127.034Z" fill="#C4A386"/>
<path d="M129.19 122.936C131.86 120.957 134.325 119.045 136.516 117.134C138.706 115.222 140.76 113.379 142.335 111.809C143.91 110.239 145.347 108.874 146.238 107.918L147.675 106.416C144.778 105.833 141.854 105.401 138.912 105.119C135.977 104.833 133.028 104.719 130.08 104.778C126.503 104.753 122.93 105.027 119.4 105.597C112.023 106.451 104.97 109.101 98.8601 113.311C96.0981 115.388 93.7719 117.986 92.0138 120.957C90.4643 124.068 89.7339 127.522 89.8913 130.992C96.6481 133.906 104.232 134.293 111.252 132.084C114.544 131.132 117.715 129.803 120.7 128.125C123.657 126.611 126.495 124.876 129.19 122.936Z" fill="#C4A386"/>
<path d="M107.329 91.8355C111.357 91.8355 117.642 92.2042 122.757 88.6689C124.144 87.6551 125.469 86.5611 126.727 85.3919C128.045 84.2264 129.28 82.9717 130.425 81.6373C132.897 78.9742 135.185 76.1458 137.271 73.1723C141.242 67.3018 144.665 61.2259 147.13 56.6522C148.362 54.3992 149.223 52.4206 149.908 51.0555L150.371 49.8894L150.621 49.0746L147.432 49.2983C145.309 49.578 144.067 49.7646 141.995 50.3036C135.454 51.959 129.151 54.4365 123.236 57.6762C116.403 61.2018 110.494 66.2753 105.983 72.4898C103.89 75.4424 102.487 78.8245 101.875 82.3885C101.194 85.3768 101.213 88.3761 101.875 91.4678" fill="#C4A386"/>
<path d="M352.051 482.154C355.207 479.688 358.715 477.709 362.458 476.282C365.961 475.051 369.632 474.36 373.344 474.233C381.386 474.143 389.403 475.153 397.17 477.239C405.111 479.218 412.711 481.537 418.325 483.451C423.939 485.361 427.636 486.796 427.636 486.796C427.636 486.796 424.008 488.845 418.256 491.303C411.055 494.419 403.521 496.709 395.8 498.128C387.074 499.838 378.078 499.629 369.442 497.515C365.461 496.664 361.769 494.803 358.722 492.112C355.675 489.421 353.377 485.99 352.051 482.154Z" fill="#C4A386"/>
<path d="M376.291 447.062C373.337 454.153 368.625 460.377 362.599 465.154C359.742 467.37 356.418 468.912 352.877 469.661C349.227 470.405 345.437 470.049 341.991 468.634C341.753 461.4 343.71 454.263 347.605 448.158C351.325 442.486 355.95 437.455 361.298 433.276C365.944 429.546 370.814 426.103 375.881 422.966C379.92 420.439 382.727 419.007 382.727 419.007C382.727 419.007 382.727 419.895 382.727 421.465C382.727 423.036 382.316 425.15 381.837 427.882C380.78 434.478 378.917 440.919 376.291 447.062Z" fill="#C4A386"/>
<path d="M433.392 465.497C429.523 465.453 425.716 464.524 422.262 462.786C418.808 461.044 415.8 458.541 413.469 455.462C415.29 452.247 417.745 449.434 420.687 447.193C423.629 444.952 426.996 443.328 430.585 442.42C438.333 440.355 446.321 439.32 454.342 439.349C462.489 439.349 470.636 439.349 476.729 439.349H486.931C486.931 439.349 486.178 440.236 484.808 441.602C483.439 442.968 481.317 444.813 478.715 446.927C472.454 452.072 465.55 456.386 458.176 459.76C450.471 463.559 441.987 465.522 433.392 465.497Z" fill="#C4A386"/>
<path d="M417.915 434.298C415.793 437.21 412.983 439.557 409.735 441.128C406.487 442.702 402.901 443.451 399.293 443.312C396.444 436.453 396.273 428.781 398.814 421.809C401.246 415.4 404.664 409.413 408.947 404.06C412.849 398.736 416.82 394.159 419.695 390.953C421.133 389.244 422.366 387.947 423.187 387.06L424.488 385.694C424.488 385.694 424.488 386.516 425.172 387.947C425.689 389.996 426.1 392.07 426.405 394.159C427.413 400.699 427.413 407.352 426.405 413.887C425.332 421.294 422.413 428.311 417.915 434.298Z" fill="#C4A386"/>
<path d="M515.548 377.434C521.162 375.659 524.859 374.635 524.859 374.635C524.859 374.635 524.517 375.591 523.763 377.161C523.011 378.731 521.847 380.848 520.409 383.442C518.971 386.037 517.191 389.039 515.137 392.18C514.11 393.75 513.015 395.321 511.851 396.957L510.961 398.187L509.797 399.688L507.401 402.694C501.486 410.125 493.617 415.777 484.671 419.007C480.965 420.369 476.978 420.79 473.069 420.23C469.16 419.67 465.453 418.149 462.283 415.801C464.111 408.505 468.509 402.109 474.675 397.779C476.112 396.617 477.756 395.525 479.399 394.364L484.602 391.088L490.148 387.878C491.859 386.925 493.639 386.037 495.42 385.215C501.947 382.176 508.671 379.576 515.548 377.434Z" fill="#C4A386"/>
<path d="M460.362 391.497C459.432 394.948 457.587 398.089 455.022 400.588C452.456 403.087 449.264 404.849 445.779 405.696C441.26 399.979 438.694 392.969 438.453 385.694C438.272 379.637 438.685 373.579 439.686 367.603C440.098 364.578 440.739 361.589 441.603 358.66C442.493 355.656 443.383 352.926 444.273 350.673C445.163 348.42 445.916 346.509 446.463 345.212L447.217 343.164L448.655 345.212C449.544 346.577 450.64 348.489 451.872 350.878C455.054 356.95 457.6 363.332 459.472 369.924C459.951 371.767 460.43 373.679 460.841 375.59C461.197 377.394 461.449 379.218 461.594 381.051C461.765 382.868 461.765 384.696 461.594 386.512C461.341 388.209 460.929 389.877 460.362 391.497Z" fill="#C4A386"/>
<path d="M524.175 349.443C522.836 350.994 521.37 352.432 519.793 353.743C518.311 355.023 516.731 356.187 515.069 357.225C511.964 359.485 508.387 361.016 504.604 361.702C500.822 362.388 496.933 362.211 493.229 361.184C492.581 357.541 492.815 353.796 493.913 350.262C494.421 348.588 495.134 346.983 496.036 345.483C496.929 343.925 497.912 342.421 498.98 340.978C503.887 334.829 509.815 329.564 516.507 325.413C522.399 321.266 528.525 317.459 534.855 314.012L543.482 309.37C543.482 309.37 543.482 310.394 542.934 312.101C542.386 313.808 541.77 316.197 540.743 318.928C538.544 326.117 535.439 332.998 531.501 339.407C529.312 342.929 526.863 346.283 524.175 349.443Z" fill="#C4A386"/>
<path d="M481.315 346.576C479.779 349.812 477.418 352.59 474.469 354.632C467.89 350.956 462.986 344.892 460.776 337.702C460.231 336.026 459.796 334.315 459.476 332.582L459.065 329.988C459.065 329.169 459.065 328.281 458.654 327.394C458.246 323.905 458.108 320.391 458.243 316.881C458.472 310.937 459.044 305.011 459.955 299.132C460.365 296.811 460.776 294.899 461.05 293.602C461.324 292.305 461.461 291.554 461.461 291.554L463.173 293.261C464.698 294.773 466.137 296.369 467.486 298.04C471.733 303.228 475.406 308.858 478.44 314.833C481.783 321.568 483.584 328.959 483.712 336.473C483.695 338.246 483.465 340.011 483.027 341.729C482.64 343.404 482.066 345.03 481.315 346.576Z" fill="#C4A386"/>
<path d="M538.003 284.591C537.044 286.403 535.945 288.138 534.717 289.779C533.478 291.374 532.128 292.879 530.677 294.285C528.057 297.037 524.853 299.17 521.299 300.528C517.745 301.886 513.932 302.435 510.138 302.135C508.779 298.712 508.285 295.008 508.7 291.35C508.91 289.607 509.3 287.891 509.864 286.229C510.303 284.504 510.875 282.815 511.576 281.178C513.225 277.723 515.269 274.47 517.669 271.484L521.366 266.842C522.598 265.272 523.968 263.77 525.268 262.268C530.677 256.397 536.565 250.936 540.741 246.908C544.918 242.881 547.999 240.218 547.999 240.218C547.999 240.218 547.999 244.314 547.999 250.458C547.679 253.986 547.177 257.495 546.492 260.971C546.081 262.883 545.671 264.862 545.192 266.842C544.748 268.878 544.177 270.885 543.48 272.849C541.928 276.884 540.098 280.808 538.003 284.591Z" fill="#C4A386"/>
<path d="M490.42 297.698C483.407 295.353 477.524 290.485 473.919 284.045C473.043 282.56 472.288 281.008 471.66 279.403C470.877 277.831 470.191 276.212 469.606 274.556C468.529 271.372 467.705 268.107 467.141 264.794C466.526 261.585 465.841 258.445 465.499 255.578C465.499 254.076 465.499 252.711 465.088 251.414C464.677 250.117 465.088 248.888 465.088 247.728C464.711 245.24 464.482 242.733 464.403 240.218C464.403 240.218 467.415 241.925 471.729 244.997L475.22 247.591C476.453 248.615 477.685 249.639 478.917 250.8C481.591 253.185 484.085 255.764 486.38 258.514C487.544 259.947 488.708 261.449 489.803 263.019L491.309 265.408L492.61 267.934C494.241 271.202 495.438 274.667 496.17 278.243C496.552 279.968 496.735 281.732 496.718 283.499C496.617 285.206 496.342 286.899 495.897 288.551C494.912 292.028 493.023 295.184 490.42 297.698Z" fill="#C4A386"/>
<path d="M518.898 199.259C520.746 195.709 522.732 192.432 524.649 189.087L529.921 180.554C533.002 175.571 535.261 172.362 535.261 172.362C535.261 172.362 536.425 176.253 537.657 182.261C538.068 185.333 538.547 189.087 538.821 192.842C538.821 194.753 538.821 196.801 538.821 198.849C538.821 200.897 538.821 203.013 538.821 205.13C538.487 209.366 537.8 213.568 536.767 217.691C535.69 221.645 534.078 225.434 531.974 228.955C530.084 232.243 527.457 235.051 524.297 237.159C521.138 239.267 517.533 240.618 513.763 241.106C512.738 239.553 511.91 237.879 511.298 236.122C510.651 234.472 510.192 232.755 509.929 231.002C509.404 227.5 509.566 223.93 510.408 220.49C511.192 216.799 512.315 213.189 513.763 209.704C515.269 206.086 517.118 202.399 518.898 199.259Z" fill="#C4A386"/>
<path d="M474.602 230.115C472.18 227.747 470.064 225.087 468.304 222.196C466.381 219.485 464.708 216.606 463.306 213.595C462.553 212.161 462.005 210.728 461.32 209.362L459.54 205.266C458.445 202.604 457.623 200.146 456.87 198.03C455.295 193.866 454.542 191.204 454.542 191.204C457.395 191.94 460.206 192.828 462.964 193.866C469.127 196.175 474.953 199.298 480.285 203.15C481.843 204.213 483.329 205.375 484.735 206.631C486.104 207.883 487.406 209.204 488.637 210.591C491.094 213.336 493.146 216.416 494.731 219.738C496.133 222.875 496.856 226.271 496.853 229.705C496.9 231.415 496.669 233.121 496.169 234.757C495.606 236.509 494.823 238.183 493.841 239.74C486.495 238.879 479.686 235.472 474.602 230.115Z" fill="#C4A386"/>
<path d="M498.638 177.278C497.569 175.889 496.672 174.376 495.967 172.772C495.291 171.192 494.786 169.544 494.461 167.857C494.461 166.151 493.982 164.376 493.777 162.6C493.555 158.88 493.762 155.147 494.393 151.473C494.914 147.541 495.669 143.643 496.652 139.8C498.638 132.018 500.76 124.713 502.745 119.32C504.731 113.927 505.964 109.831 505.964 109.831C505.964 109.831 506.511 110.719 507.333 112.22C508.154 113.722 509.25 116.043 510.55 119.047C513.651 125.906 515.948 133.099 517.397 140.482C518.077 144.569 518.466 148.698 518.561 152.839C518.537 154.895 518.377 156.947 518.082 158.982C517.761 160.94 517.326 162.878 516.781 164.785C515.786 168.421 514.011 171.799 511.578 174.684C509.089 177.693 505.889 180.039 502.266 181.51C500.869 180.271 499.648 178.847 498.638 177.278Z" fill="#C4A386"/>
<path d="M433.731 147.65C432.978 146.558 432.635 145.944 432.635 145.944H435.031C436.675 145.944 438.797 145.944 441.398 146.49C444 147.036 447.081 147.309 450.367 148.06C452.01 148.402 453.722 148.879 455.434 149.357C457.145 149.835 458.788 150.518 460.5 151.201C464.003 152.525 467.354 154.219 470.496 156.252C473.497 158.166 476.236 160.461 478.643 163.079C479.751 164.393 480.693 165.837 481.45 167.379C482.192 168.89 482.788 170.467 483.23 172.09C483.698 173.733 483.928 175.434 483.915 177.141C483.765 178.97 483.421 180.778 482.888 182.534C479.157 183.258 475.322 183.258 471.591 182.534C468.186 181.756 464.912 180.492 461.87 178.78C460.432 177.892 458.994 177.005 457.625 175.981L455.708 174.411L453.722 172.773C451.248 170.697 448.957 168.413 446.876 165.946C444.821 163.79 442.9 161.51 441.125 159.119L439.892 157.344L438.728 155.774C437.907 154.682 437.222 153.658 436.606 152.771C435.99 151.883 434.347 148.811 433.731 147.65Z" fill="#C4A386"/>
<path d="M476.317 127.034C473.081 125.458 470.284 123.114 468.17 120.207C466.051 117.439 464.493 114.285 463.583 110.923C459.858 96.5828 460.843 81.346 462.145 66.7547C462.761 61.0887 463.377 57.2657 463.377 57.2657C466.147 59.4141 468.244 61.9079 470.292 64.775C472.368 67.4863 474.288 70.3122 476.043 73.2399C478.088 76.6502 479.917 80.184 481.52 83.8212C483.148 87.6196 484.453 91.5472 485.423 95.5632C486.234 99.4675 486.557 103.458 486.381 107.441C486.286 111.251 485.331 114.99 483.589 118.381C481.847 121.773 479.361 124.73 476.317 127.034Z" fill="#C4A386"/>
<path d="M418.809 122.936C416.139 120.957 413.674 119.045 411.483 117.134C409.292 115.222 407.238 113.379 405.664 111.809C404.089 110.239 402.651 108.874 401.761 107.918L400.323 106.416C403.22 105.833 406.145 105.401 409.087 105.119C412.022 104.833 414.971 104.719 417.919 104.778C421.496 104.753 425.068 105.027 428.599 105.597C435.976 106.451 443.029 109.101 449.138 113.311C451.901 115.388 454.227 117.986 455.985 120.957C457.534 124.068 458.265 127.522 458.107 130.992C451.35 133.906 443.766 134.293 436.746 132.084C433.454 131.132 430.284 129.803 427.298 128.125C424.341 126.611 421.503 124.876 418.809 122.936Z" fill="#C4A386"/>
<path d="M440.669 91.8355C436.642 91.8355 430.356 92.2042 425.242 88.6689C423.855 87.6551 422.529 86.5611 421.271 85.3919C419.954 84.2264 418.719 82.9717 417.574 81.6373C415.102 78.9742 412.814 76.1458 410.728 73.1723C406.757 67.3018 403.333 61.2259 400.869 56.6522C399.636 54.3992 398.776 52.4206 398.091 51.0555L397.628 49.8894L397.377 49.0746L400.567 49.2983C402.69 49.578 403.932 49.7646 406.004 50.3036C412.545 51.959 418.848 54.4365 424.763 57.6762C431.596 61.2018 437.505 66.2753 442.015 72.4898C444.109 75.4424 445.512 78.8245 446.123 82.3885C446.805 85.3768 446.786 88.3761 446.123 91.4678" fill="#C4A386"/>
<g clip-path="url(#clip0_2927_805)">
<path d="M284.848 209.465V191.616C299.317 186.739 308.774 175.141 309.066 160.975H287.523C287.339 164.434 285.831 167.688 283.312 170.062C280.794 172.435 277.458 173.744 274.001 173.718C270.542 173.745 267.207 172.435 264.688 170.062C262.168 167.689 260.659 164.434 260.475 160.975H238.935C239.227 175.141 248.684 186.74 263.151 191.616V209.465C244.307 212.211 227.199 222.002 215.269 236.869C203.339 251.736 197.471 270.576 198.845 289.601C200.219 308.625 208.734 326.423 222.677 339.415C236.62 352.406 254.957 359.628 274 359.628C293.043 359.628 311.38 352.406 325.322 339.415C339.265 326.423 347.78 308.625 349.155 289.601C350.529 270.576 344.661 251.736 332.731 236.869C320.801 222.002 303.693 212.211 284.848 209.465H284.848ZM274 339.548C261.189 339.535 248.779 335.073 238.884 326.922C228.99 318.772 222.223 307.436 219.737 294.848H242.014C246.852 309.319 259.346 318.876 273.699 319.012V297.42C270.148 297.42 266.743 296.007 264.232 293.492C261.721 290.978 260.31 287.566 260.31 284.01C260.31 280.453 261.721 277.042 264.232 274.527C266.743 272.012 270.148 270.599 273.699 270.599V249.01C259.347 249.145 246.853 258.703 242.014 273.175H219.79C221.864 262.896 226.809 253.418 234.048 245.843C241.288 238.268 250.526 232.906 260.687 230.382C270.849 227.858 281.517 228.274 291.451 231.583C301.386 234.892 310.179 240.957 316.808 249.073C323.437 257.19 327.63 267.025 328.9 277.434C330.169 287.843 328.463 298.399 323.979 307.876C319.495 317.352 312.419 325.359 303.571 330.966C294.724 336.572 284.469 339.549 274 339.548L274 339.548Z" fill="#C4A386"/>
</g>
<defs>
<clipPath id="clip0_2927_805">
<rect width="150.7" height="198.65" fill="white" transform="translate(198.649 160.975)"/>
</clipPath>
</defs>
</svg>
