<svg width="64" height="64" viewBox="0 0 64 64" fill="none" xmlns="http://www.w3.org/2000/svg">
<path d="M56.6351 32C56.6351 15.2381 44.3349 6.85715 32.0348 6.85715C19.6663 6.85715 7.36621 15.2381 7.36621 32C7.36621 48.7619 19.6663 57.1429 32.0348 57.1429C44.3349 57.1429 56.6351 48.7619 56.6351 32ZM48.64 32C48.64 43.2662 40.3032 48.8306 32.0348 48.8306C23.6981 48.8306 15.4296 43.2662 15.4296 32C15.4296 20.7338 23.6981 15.1694 32.0348 15.1694C40.3032 15.1694 48.64 20.7338 48.64 32Z" fill="#2C2C2C"/>
<path d="M32.6495 39.5566C33.1962 35.7096 35.8612 32.2061 39.4146 32.2061V31.2443C35.8612 31.2443 33.1962 27.7408 32.6495 23.8938H31.7612C31.2829 27.7408 28.5495 31.2443 25.0645 31.2443V32.2061C28.5495 32.2061 31.2829 35.7096 31.7612 39.5566H32.6495Z" fill="#996830"/>
</svg>
