<svg width="567" height="568" viewBox="0 0 567 568" fill="none" xmlns="http://www.w3.org/2000/svg">
<rect x="9.45" y="9.95" width="548.1" height="548.1" rx="274.05" fill="#2C2C2C"/>
<path d="M314.998 252.5L251.998 315.5" stroke="white" stroke-width="7.0875" stroke-linecap="round" stroke-linejoin="round"/>
<path d="M258.302 252.5H315.002V309.2" stroke="white" stroke-width="7.0875" stroke-linecap="round" stroke-linejoin="round"/>
<path d="M440.887 342.787C441.844 340.239 443.242 338.018 445.083 336.125C446.924 334.232 449.03 332.761 451.401 331.713C453.808 330.678 456.348 330.097 459.02 329.969C461.714 329.89 464.389 330.349 467.043 331.344C469.697 332.34 471.995 333.748 473.937 335.566C475.866 337.421 477.378 339.522 478.475 341.872C479.594 344.27 480.2 346.798 480.292 349.457C480.407 352.165 479.959 354.864 478.95 357.553C477.848 360.491 476.259 363.003 474.184 365.091C472.108 367.179 469.708 368.68 466.982 369.596L464.395 363.901C466.364 363.389 468.101 362.365 469.606 360.83C471.145 359.308 472.314 357.486 473.111 355.362C474.067 352.814 474.344 350.354 473.941 347.983C473.561 345.66 472.58 343.596 470.996 341.791C469.413 339.985 467.312 338.591 464.693 337.609C462.074 336.626 459.556 336.287 457.141 336.592C454.747 336.945 452.639 337.83 450.816 339.245C448.993 340.66 447.643 342.536 446.767 344.872C445.837 347.349 445.483 349.639 445.704 351.74C445.946 353.89 446.773 355.775 448.184 357.395C449.631 359.027 451.663 360.335 454.282 361.318L450.088 364.104L456.044 348.232L461.618 350.323L454.726 368.691L453.876 368.372C449.452 366.712 446.07 364.535 443.731 361.84C441.377 359.181 439.987 356.216 439.558 352.947C439.13 349.677 439.573 346.291 440.887 342.787Z" fill="white"/>
<path d="M429.631 369.419L461.897 392.532L458.1 397.833L425.834 374.72L429.631 369.419ZM427.022 373.061L431.862 376.528L418.919 394.597L414.079 391.13L427.022 373.061ZM441.173 383.197L445.829 386.532L434.008 403.034L429.353 399.699L441.173 383.197ZM454.449 392.706L459.288 396.173L446.511 414.012L441.671 410.545L454.449 392.706Z" fill="white"/>
<path d="M399.999 405.923L425.631 434.724L420.761 439.059L395.128 410.258L399.999 405.923ZM432.084 422.529L436.042 426.977L411.857 448.501L407.899 444.053L432.084 422.529Z" fill="white"/>
<path d="M358.266 435.185L374.676 471.324L368.739 474.02L352.329 437.881L358.266 435.185Z" fill="white"/>
<path d="M336.26 444.884L345.03 483.593L340.606 484.595L337.017 477.735L329.9 446.325L336.26 444.884ZM309.44 450.961L339.464 475.959L340.606 484.595L310.583 459.597L309.44 450.961ZM309.44 450.961L312.916 457.324L320.146 489.231L313.787 490.672L305.016 451.963L309.44 450.961Z" fill="white"/>
<path d="M263.829 451.517L257.914 489.617L251.471 488.616L257.386 450.517L263.829 451.517ZM271.428 486.837L270.515 492.72L238.523 487.754L239.436 481.871L271.428 486.837Z" fill="white"/>
<path d="M215.839 437.776C218.433 438.919 220.641 440.471 222.463 442.43C224.284 444.389 225.669 446.59 226.617 449.032C227.55 451.508 228.005 454.084 227.983 456.759C227.911 459.454 227.303 462.098 226.16 464.692C225.017 467.286 223.483 469.502 221.558 471.339C219.599 473.16 217.415 474.553 215.008 475.516C212.551 476.499 210.01 476.969 207.384 476.928C204.709 476.905 202.075 476.323 199.48 475.179C196.886 474.036 194.695 472.492 192.908 470.548C191.072 468.624 189.687 466.423 188.754 463.947C187.806 461.505 187.368 458.937 187.44 456.242C187.462 453.567 188.045 450.932 189.188 448.338C190.332 445.744 191.89 443.518 193.865 441.662C195.79 439.825 197.973 438.433 200.415 437.485C202.822 436.522 205.363 436.051 208.039 436.074C210.679 436.081 213.279 436.648 215.839 437.776ZM213.428 443.529C210.972 442.447 208.583 442.055 206.262 442.354C203.906 442.638 201.783 443.52 199.892 445C197.951 446.499 196.416 448.528 195.288 451.088C194.45 452.99 193.999 454.857 193.935 456.688C193.822 458.538 194.068 460.278 194.672 461.907C195.26 463.571 196.178 465.05 197.426 466.343C198.639 467.621 200.162 468.664 201.995 469.472C204.417 470.539 206.805 470.931 209.161 470.647C211.467 470.382 213.582 469.518 215.508 468.053C217.4 466.574 218.909 464.554 220.037 461.994C220.876 460.092 221.359 458.198 221.487 456.313C221.566 454.448 221.321 452.708 220.751 451.094C220.148 449.465 219.229 447.986 217.997 446.658C216.749 445.365 215.226 444.322 213.428 443.529Z" fill="white"/>
<path d="M174.797 412.04C177.07 413.976 178.672 416.234 179.603 418.814C180.534 421.394 180.772 424.03 180.317 426.721C179.809 429.416 178.587 431.901 176.651 434.174L160.696 452.909L155.732 448.681L171.65 429.99C172.9 428.522 173.688 426.984 174.015 425.376C174.289 423.772 174.15 422.214 173.6 420.703C173.026 419.221 172.076 417.916 170.753 416.789C169.4 415.637 167.961 414.907 166.435 414.601C164.884 414.323 163.353 414.459 161.842 415.009C160.306 415.588 158.926 416.597 157.7 418.036L141.745 436.77L136.781 432.543L152.773 413.765C154.709 411.491 156.955 409.904 159.51 409.002C162.066 408.1 164.677 407.891 167.343 408.374C170.01 408.857 172.494 410.08 174.797 412.04Z" fill="white"/>
<path d="M142.058 374.807C143.696 377.167 144.797 379.647 145.36 382.247C145.871 384.838 145.883 387.407 145.396 389.953C144.879 392.522 143.891 394.91 142.433 397.119C140.945 399.349 139.036 401.273 136.708 402.89C134.379 404.507 131.925 405.612 129.347 406.207C126.737 406.822 124.154 406.913 121.598 406.479C119.041 406.045 116.639 405.137 114.389 403.753C112.119 402.339 110.164 400.452 108.525 398.092C106.693 395.453 105.543 392.869 105.075 390.341C104.608 387.812 104.602 385.285 105.058 382.76L111.213 383.87C110.825 385.565 110.822 387.317 111.202 389.123C111.561 390.899 112.376 392.703 113.648 394.535C114.77 396.149 116.073 397.43 117.559 398.377C119.045 399.324 120.661 399.928 122.406 400.188C124.099 400.439 125.843 400.333 127.638 399.869C129.433 399.405 131.184 398.58 132.891 397.394C134.599 396.208 135.984 394.856 137.045 393.336C138.107 391.817 138.832 390.209 139.219 388.513C139.554 386.808 139.537 385.094 139.169 383.371C138.8 381.648 138.056 379.979 136.935 378.365C135.555 376.378 134.096 374.906 132.557 373.949C130.966 372.983 129.308 372.386 127.584 372.156L128.694 366.001C131.251 366.435 133.664 367.359 135.935 368.773C138.206 370.188 140.247 372.199 142.058 374.807Z" fill="white"/>
<path d="M129.996 355.355L92.6309 368.739L90.4321 362.6L127.798 349.217L129.996 355.355ZM121.488 331.602L84.1228 344.985L81.924 338.847L119.289 325.463L121.488 331.602ZM111.938 357.065L106.334 359.073L98.8579 338.202L104.463 336.194L111.938 357.065Z" fill="white"/>
<path d="M100.12 282.444C100.12 283.616 99.8556 284.655 99.3264 285.563C98.7972 286.47 98.079 287.188 97.1718 287.717C96.2268 288.209 95.2062 288.454 94.11 288.454C93.0138 288.454 92.0121 288.209 91.1049 287.717C90.1977 287.188 89.4795 286.47 88.9503 285.563C88.3833 284.655 88.0998 283.616 88.0998 282.444C88.0998 281.272 88.3833 280.252 88.9503 279.382C89.4795 278.475 90.1977 277.776 91.1049 277.284C92.0121 276.755 93.0138 276.491 94.11 276.491C95.2062 276.491 96.2268 276.755 97.1718 277.284C98.079 277.776 98.7972 278.475 99.3264 279.382C99.8556 280.252 100.12 281.272 100.12 282.444Z" fill="white"/>
<path d="M125.368 227.236C124.44 229.795 123.067 232.031 121.247 233.945C119.428 235.859 117.339 237.353 114.979 238.428C112.584 239.489 110.051 240.099 107.38 240.257C104.687 240.367 102.008 239.938 99.3425 238.972C96.6771 238.006 94.3633 236.625 92.4011 234.828C90.4518 232.996 88.9156 230.911 87.7924 228.574C86.6466 226.189 86.0126 223.668 85.8903 221.01C85.7453 218.304 86.1622 215.6 87.1411 212.899C88.2101 209.95 89.7705 207.419 91.8221 205.308C93.8738 203.197 96.2572 201.669 98.9721 200.723L101.623 206.388C99.6602 206.923 97.9352 207.966 96.448 209.518C94.9254 211.057 93.7776 212.892 93.0048 215.024C92.0775 217.583 91.8282 220.046 92.257 222.413C92.6632 224.731 93.6682 226.784 95.2719 228.571C96.8756 230.359 98.9924 231.729 101.622 232.682C104.252 233.635 106.773 233.946 109.185 233.614C111.574 233.233 113.673 232.325 115.48 230.889C117.287 229.454 118.615 227.563 119.465 225.217C120.367 222.73 120.695 220.437 120.451 218.338C120.184 216.19 119.336 214.315 117.906 212.711C116.442 211.095 114.395 209.81 111.765 208.857L115.928 206.024L110.151 221.962L104.554 219.934L111.239 201.49L112.091 201.799C116.534 203.409 119.94 205.548 122.31 208.216C124.693 210.849 126.117 213.797 126.582 217.062C127.048 220.326 126.643 223.718 125.368 227.236Z" fill="white"/>
<path d="M136.114 200.651L103.596 177.894L107.335 172.552L139.852 195.309L136.114 200.651ZM138.682 196.981L133.804 193.568L146.548 175.358L151.426 178.771L138.682 196.981ZM124.421 187.001L119.729 183.717L131.368 167.087L136.059 170.37L124.421 187.001ZM111.042 177.638L106.164 174.224L118.746 156.246L123.623 159.66L111.042 177.638Z" fill="white"/>
<path d="M165.574 163.418L139.733 134.804L144.572 130.433L170.413 159.048L165.574 163.418ZM133.369 147.045L129.378 142.627L153.406 120.927L157.396 125.346L133.369 147.045Z" fill="white"/>
<path d="M207.202 133.565L190.523 97.5495L196.44 94.8094L213.118 130.825L207.202 133.565Z" fill="white"/>
<path d="M228.443 123.836L219.231 85.2303L223.643 84.1774L227.31 90.9968L234.785 122.323L228.443 123.836ZM255.191 117.454L224.884 92.7999L223.643 84.1774L253.95 108.831L255.191 117.454ZM255.191 117.454L251.642 111.131L244.049 79.3081L250.391 77.7946L259.604 116.401L255.191 117.454Z" fill="white"/>
<path d="M300.748 116.198L306.224 78.0333L312.679 78.9594L307.203 117.125L300.748 116.198ZM292.743 80.9678L293.589 75.0746L325.636 79.673L324.791 85.5662L292.743 80.9678Z" fill="white"/>
<path d="M349.243 129.387C346.64 128.263 344.42 126.729 342.584 124.783C340.748 122.837 339.347 120.647 338.381 118.212C337.43 115.743 336.955 113.171 336.957 110.495C337.009 107.8 337.597 105.151 338.721 102.549C339.845 99.946 341.362 97.719 343.273 95.8679C345.219 94.0318 347.392 92.6231 349.792 91.6419C352.242 90.641 354.779 90.1516 357.405 90.1736C360.08 90.1759 362.719 90.739 365.322 91.8628C367.925 92.9867 370.127 94.514 371.928 96.4447C373.779 98.3556 375.18 100.546 376.132 103.015C377.098 105.45 377.555 108.015 377.503 110.71C377.501 113.385 376.937 116.024 375.814 118.627C374.69 121.229 373.148 123.466 371.187 125.337C369.276 127.188 367.103 128.597 364.668 129.563C362.268 130.544 359.731 131.034 357.055 131.031C354.415 131.044 351.811 130.496 349.243 129.387ZM351.611 123.616C354.075 124.68 356.466 125.054 358.785 124.738C361.138 124.436 363.255 123.539 365.136 122.045C367.065 120.531 368.585 118.49 369.694 115.922C370.518 114.014 370.955 112.144 371.004 110.312C371.104 108.461 370.845 106.723 370.229 105.099C369.628 103.439 368.699 101.968 367.442 100.684C366.22 99.4146 364.689 98.383 362.849 97.5888C360.42 96.5399 358.029 96.1661 355.675 96.4675C353.372 96.7491 351.262 97.6293 349.347 99.1082C347.467 100.602 345.972 102.633 344.864 105.201C344.039 107.11 343.57 109.007 343.456 110.893C343.391 112.759 343.65 114.497 344.231 116.106C344.847 117.731 345.776 119.203 347.018 120.521C348.275 121.805 349.806 122.837 351.611 123.616Z" fill="white"/>
<path d="M390.507 154.534C388.212 152.622 386.585 150.382 385.627 147.812C384.668 145.242 384.401 142.61 384.826 139.914C385.305 137.213 386.5 134.715 388.411 132.421L404.16 113.513L409.17 117.686L393.457 136.551C392.223 138.032 391.452 139.578 391.142 141.19C390.886 142.797 391.042 144.353 391.608 145.858C392.199 147.334 393.162 148.628 394.498 149.741C395.863 150.878 397.311 151.592 398.84 151.882C400.394 152.143 401.923 151.99 403.428 151.423C404.957 150.828 406.327 149.804 407.536 148.352L423.286 129.444L428.296 133.617L412.51 152.568C410.599 154.863 408.371 156.475 405.825 157.405C403.28 158.335 400.671 158.572 397.999 158.118C395.328 157.664 392.83 156.469 390.507 154.534Z" fill="white"/>
<path d="M424 191.77C422.344 189.423 421.226 186.951 420.643 184.355C420.114 181.768 420.083 179.199 420.551 176.649C421.05 174.077 422.02 171.681 423.461 169.462C424.933 167.221 426.828 165.283 429.145 163.649C431.461 162.015 433.907 160.892 436.481 160.279C439.086 159.644 441.669 159.534 444.228 159.95C446.787 160.365 449.197 161.256 451.456 162.623C453.737 164.02 455.705 165.893 457.361 168.241C459.213 170.866 460.382 173.442 460.868 175.967C461.354 178.492 461.378 181.019 460.941 183.548L454.778 182.482C455.153 180.784 455.144 179.033 454.75 177.229C454.378 175.456 453.55 173.658 452.264 171.836C451.132 170.229 449.819 168.958 448.326 168.022C446.833 167.086 445.213 166.494 443.465 166.246C441.771 166.008 440.028 166.127 438.236 166.604C436.445 167.081 434.7 167.919 433.001 169.117C431.302 170.315 429.927 171.678 428.877 173.205C427.826 174.733 427.113 176.345 426.739 178.044C426.416 179.751 426.446 181.465 426.827 183.186C427.207 184.906 427.964 186.569 429.097 188.176C430.491 190.153 431.961 191.614 433.507 192.559C435.105 193.513 436.767 194.099 438.493 194.316L437.428 200.479C434.868 200.064 432.448 199.157 430.167 197.759C427.886 196.361 425.83 194.365 424 191.77Z" fill="white"/>
<path d="M436.357 211.198L473.621 197.534L475.866 203.656L438.602 217.32L436.357 211.198ZM445.044 234.887L482.308 221.223L484.552 227.345L447.289 241.009L445.044 234.887ZM454.402 209.353L459.992 207.303L467.624 228.117L462.034 230.167L454.402 209.353Z" fill="white"/>
<path d="M466.881 282.655C466.863 281.483 467.111 280.44 467.627 279.524C468.142 278.609 468.849 277.88 469.748 277.337C470.685 276.831 471.702 276.569 472.798 276.552C473.894 276.535 474.899 276.766 475.814 277.243C476.729 277.758 477.458 278.465 478.001 279.364C478.582 280.262 478.882 281.297 478.9 282.469C478.918 283.641 478.65 284.666 478.097 285.544C477.582 286.459 476.874 287.169 475.975 287.675C475.076 288.218 474.078 288.498 472.982 288.515C471.886 288.532 470.862 288.283 469.909 287.768C468.994 287.291 468.265 286.603 467.722 285.704C467.179 284.843 466.899 283.826 466.881 282.655Z" fill="white"/>
<rect x="9.45" y="9.95" width="548.1" height="548.1" rx="274.05" stroke="white" stroke-width="18.9"/>
</svg>
