<svg width="556" height="202" viewBox="0 0 556 202" fill="none" xmlns="http://www.w3.org/2000/svg">
<path d="M42.3112 167.403V164.936C32.489 164.936 32.489 154.881 32.489 139.893V62.108C32.489 47.1202 32.489 37.065 42.3112 37.065V34.5986H0V37.065C9.82224 37.065 9.82224 47.1202 9.82224 62.108V139.893C9.82224 154.881 9.82224 164.936 0 164.936V167.403H42.3112Z" fill="#2C2C2C"/>
<path d="M51.4649 34.5986V37.065C61.2872 37.065 61.2872 47.1202 61.2872 62.108V139.893C61.2872 154.881 61.2872 164.936 51.4649 164.936V167.403H93.7761V164.936C83.9539 164.936 83.9539 154.881 83.9539 139.893V82.0286L153.276 167.403H178.965V164.936C169.143 164.936 169.143 154.881 169.143 139.893V62.108C169.143 47.1202 169.143 37.065 178.965 37.065V34.5986H136.654V37.065C145.532 37.065 146.476 45.4127 146.476 58.3136V123.957L74.6983 34.5986H51.4649Z" fill="#2C2C2C"/>
<path d="M190.234 34.5986V65.7127H192.689C192.689 55.8473 202.7 55.8473 217.623 55.8473H233.111V139.893C233.111 154.881 233.111 164.936 223.478 164.936V167.403H265.6V164.936C255.778 164.936 255.778 154.881 255.778 139.893V55.8473H271.645C286.567 55.8473 296.578 55.8473 296.578 65.7127H299.034V34.5986H190.234Z" fill="#2C2C2C"/>
<path d="M310.45 34.5986V37.065C320.272 37.065 320.272 47.1202 320.272 62.108V139.893C320.272 154.881 320.272 164.936 310.45 164.936V167.403H405.839L408.672 136.289H406.028C406.028 146.154 393.372 146.154 378.45 146.154H342.939V55.8473H378.45C393.372 55.8473 403.383 55.8473 403.383 65.7127H405.839V34.5986H310.45ZM378.261 122.249C379.772 111.815 387.139 101.949 396.961 101.949V99.4829C387.139 99.4829 379.772 89.8071 378.261 79.1828H375.806C374.483 89.8071 366.928 99.4829 357.294 99.4829V101.949C366.928 101.949 374.483 111.815 375.806 122.249H378.261Z" fill="#2C2C2C"/>
<path d="M556 101.001C556 54.7089 522 31.5631 488 31.5631C453.811 31.5631 419.811 54.7089 419.811 101.001C419.811 147.292 453.811 170.438 488 170.438C522 170.438 556 147.292 556 101.001ZM533.9 101.001C533.9 132.115 510.855 147.482 488 147.482C464.955 147.482 442.1 132.115 442.1 101.001C442.1 69.8865 464.955 54.5192 488 54.5192C510.855 54.5192 533.9 69.8865 533.9 101.001ZM489.7 121.87C491.211 111.245 498.578 101.57 508.4 101.57V98.9137C498.578 98.9137 491.211 89.238 489.7 78.6137H487.244C485.922 89.238 478.367 98.9137 468.733 98.9137V101.57C478.367 101.57 485.922 111.245 487.244 121.87H489.7Z" fill="#2C2C2C"/>
<path d="M378.265 122.249C379.776 111.814 387.142 101.949 396.965 101.949V99.4825C387.142 99.4825 379.776 89.8068 378.265 79.1824H375.809C374.487 89.8068 366.931 99.4825 357.298 99.4825V101.949C366.931 101.949 374.487 111.814 375.809 122.249H378.265Z" fill="#996830"/>
<path d="M489.703 121.869C491.214 111.245 498.581 101.569 508.403 101.569V98.9133C498.581 98.9133 491.214 89.2376 489.703 78.6133H487.248C485.926 89.2376 478.37 98.9133 468.737 98.9133V101.569C478.37 101.569 485.926 111.245 487.248 121.869H489.703Z" fill="#996830"/>
</svg>
